<?xml version="1.0" encoding="UTF-8"?>
<svg width="251px" height="111px" viewBox="0 0 251 111" version="1.1" xmlns="http://www.w3.org/2000/svg" xmlns:xlink="http://www.w3.org/1999/xlink">
    <!-- Generator: Sketch 56.3 (81716) - https://sketch.com -->
    <title>Group 35</title>
    <desc>Created with Sketch.</desc>
    <defs>
        <polygon id="path-1" points="0 0.0195901543 32.669919 0.0195901543 32.669919 44.1652985 0 44.1652985"></polygon>
        <polygon id="path-3" points="0.0991512068 0.0580563219 8.68329758 0.0580563219 8.68329758 30.8405095 0.0991512068 30.8405095"></polygon>
        <polygon id="path-5" points="0.0802581534 0.0194957269 35.0768471 0.0194957269 35.0768471 44.8914764 0.0802581534 44.8914764"></polygon>
        <polygon id="path-7" points="0.0479026628 0.0591501951 27.1235695 0.0591501951 27.1235695 30.8839191 0.0479026628 30.8839191"></polygon>
        <polygon id="path-9" points="0.101685806 0.0612705343 27.6591468 0.0612705343 27.6591468 45.4241539 0.101685806 45.4241539"></polygon>
        <polygon id="path-11" points="0.0573263483 0.0158609383 63.6097652 0.0158609383 63.6097652 39.1010236 0.0573263483 39.1010236"></polygon>
    </defs>
    <g id="Apple-iPhone-X" stroke="none" stroke-width="1" fill="none" fill-rule="evenodd">
        <g id="v-copy-3" transform="translate(-2047.000000, -1689.000000)">
            <g id="Group-35" transform="translate(2047.420074, 1689.000000)">
                <g id="Group-3" transform="translate(0.154400, 65.761448)">
                    <mask id="mask-2" fill="white">
                        <use xlink:href="#path-1"></use>
                    </mask>
                    <g id="Clip-2"></g>
                    <path d="M16.1921866,36.5814761 L9.32731765,36.5814761 L9.32731765,25.4317334 L15.8685168,25.4317334 C21.2442491,25.4317334 23.4472503,27.7646263 23.4472503,31.0066047 C23.4472503,35.4790498 20.0135365,36.5814761 16.1921866,36.5814761 L16.1921866,36.5814761 Z M9.32731765,7.5393925 L14.2488888,7.5393925 C17.4228992,7.5393925 20.0135365,9.22440185 20.0135365,12.4663803 C20.0135365,17.0041259 16.581102,17.9759512 14.1849225,17.9759512 L9.32731765,17.9759512 L9.32731765,7.5393925 Z M32.669919,29.1116094 C31.7986973,24.9631062 28.9944124,22.0399479 23.8361657,20.8286873 L23.8361657,20.6993667 C27.3978122,19.0783775 29.34111,15.7070784 29.34111,11.2346334 C29.34111,3.58551039 22.4749617,0.0195901543 15.9337625,0.0195901543 L4.66289123,0.0195901543 C2.0082876,0.0195901543 -0.00025586541,2.02982167 -0.00025586541,4.55733569 L-0.00025586541,39.627553 C-0.00025586541,42.1563474 2.0082876,44.1652985 4.66289123,44.1652985 L18.2646964,44.1652985 C24.7304153,44.1652985 31.2370727,41.2267754 32.669919,34.8695783 L32.669919,29.1116094 Z" id="Fill-1" fill="#153358" mask="url(#mask-2)"></path>
                </g>
                <path d="M34.7656884,69.6390198 C34.7656884,67.308765 36.7021581,65.4952077 39.0261767,65.4952077 C41.4139369,65.4952077 43.2853902,67.308765 43.2853902,69.6390198 L43.2853902,106.612311 C43.2853902,108.878619 41.3489205,110.756124 39.0261767,110.756124 C36.7021581,110.756124 34.7656884,108.878619 34.7656884,106.612311 L34.7656884,69.6390198 Z" id="Fill-4" fill="#153358"></path>
                <path d="M50.8738896,72.1512247 C53.594823,72.1512247 55.7987022,69.9480528 55.7987022,67.225132 C55.7987022,64.5034914 53.594823,62.3003195 50.8738896,62.3003195 C48.1516763,62.3003195 45.947797,64.5034914 45.947797,67.225132 C45.947797,69.9480528 48.1516763,72.1512247 50.8738896,72.1512247" id="Fill-6" fill="#153358"></path>
                <g id="Group-10" transform="translate(46.480278, 79.872204)">
                    <mask id="mask-4" fill="white">
                        <use xlink:href="#path-3"></use>
                    </mask>
                    <g id="Clip-9"></g>
                    <path d="M7.26117097,3.99421299 C7.26117097,3.17078125 7.46671772,2.39961066 7.8045852,1.7049198 C7.02607687,0.713232659 5.805643,0.0580563219 4.39250906,0.0580563219 C1.98504269,0.0580563219 0.0991512068,1.92926033 0.0991512068,4.18796163 L0.0991512068,26.7099669 C0.0991512068,28.9686682 1.98504269,30.8411468 4.39250906,30.8411468 C6.66765471,30.8411468 8.68329758,28.9686682 8.68329758,26.7099669 L8.68329758,7.57728825 C7.8084392,6.63531293 7.26117097,5.38104539 7.26117097,3.99421299" id="Fill-8" fill="#153358" mask="url(#mask-4)"></path>
                </g>
                <path d="M77.4873482,106.739384 C77.4873482,104.654876 78.5460505,103.097574 79.3423284,102.107145 L79.4941229,101.92032 C79.0580353,101.695106 78.5602009,101.556906 78.0006195,101.556906 C75.9166612,101.556906 74.9402881,103.370134 72.5951918,103.370134 C70.5112335,103.370134 69.533574,102.204396 69.533574,99.4186545 L69.533574,87.1739321 L75.3956716,87.1739321 C76.1520713,87.1739321 76.8428648,86.8975333 77.4037326,86.4547834 C77.0859933,85.7433124 76.9007526,84.9601825 76.9007526,84.1297065 C76.9007526,83.1111257 77.1876184,82.1680428 77.6494339,81.3401261 C77.0551199,80.78221 76.2665603,80.4367115 75.3956716,80.4367115 L69.533574,80.4367115 L69.533574,76.0962267 C69.533574,73.7634721 67.5152218,71.884984 65.2357316,71.884984 C62.8263156,71.884984 60.9378892,73.7634721 60.9378892,76.0962267 L60.9378892,80.4367115 L58.8539309,80.4367115 C57.0298242,80.4367115 55.5324616,81.9261939 55.5324616,83.8059616 C55.5324616,85.6191889 57.0298242,87.1739321 58.8539309,87.1739321 L60.9378892,87.1739321 L60.9378892,100.325908 C60.9378892,106.026633 63.8026887,110.756124 70.9022973,110.756124 C73.0518617,110.756124 75.3300655,110.303137 77.2197783,109.525125 C77.4989258,109.398442 77.7690685,109.264082 78.0289201,109.122044 C77.6893121,108.41825 77.4873482,107.622324 77.4873482,106.739384" id="Fill-11" fill="#153358"></path>
                <path d="M102.297389,102.421504 C104.30066,102.421504 105.85195,104.241 105.85195,106.190094 C105.85195,108.268786 104.30066,109.957401 102.297389,109.957401 L83.1635316,109.957401 C81.0300286,109.957401 79.5438542,108.657578 79.5438542,106.578886 C79.5438542,105.214906 80.189906,104.11012 80.9649127,103.136214 L93.376512,87.674343 L82.5813189,87.674343 C80.576771,87.674343 78.9616415,85.9857271 78.9616415,83.9070357 C78.9616415,81.8925014 80.576771,80.1384452 82.5813189,80.1384452 L101.65006,80.1384452 C103.654608,80.1384452 105.271015,81.5691494 105.271015,83.5169602 C105.271015,84.8167839 104.688802,85.8561296 103.848679,86.9609156 L91.4370799,102.421504 L102.297389,102.421504 Z" id="Fill-13" fill="#153358"></path>
                <g id="Group-17" transform="translate(123.690076, 65.761448)">
                    <mask id="mask-6" fill="white">
                        <use xlink:href="#path-5"></use>
                    </mask>
                    <g id="Clip-16"></g>
                    <path d="M22.9055642,21.5789479 C21.5479489,22.488321 19.738221,22.7474089 17.9272158,22.7474089 L9.39199196,22.7474089 L9.39199196,8.20128795 L18.1213433,8.20128795 C19.9962062,8.20128795 21.6769416,8.52707181 23.035834,9.50057554 C24.7165694,10.6049059 25.8149223,12.5519133 25.8149223,15.4749897 C25.8149223,18.3967835 24.7165694,20.4104869 22.9055642,21.5789479 L22.9055642,21.5789479 Z M32.3513993,18.0722823 C32.3513993,15.9790569 33.4344263,14.1282454 35.0768471,13.0354587 C34.5327792,8.9593126 32.6515306,5.61682153 29.8890453,3.33120407 C26.7204249,0.733911508 23.035834,0.0194957269 19.349966,0.0194957269 L4.73548648,0.0194957269 C2.14924852,0.0194957269 0.0802581534,2.0331991 0.0802581534,4.56507836 L0.0802581534,40.3461503 C0.0802581534,42.8780295 2.14924852,44.8917329 4.73548648,44.8917329 C7.19273183,44.8917329 9.39199196,42.8780295 9.39199196,40.3461503 L9.39199196,30.9304838 L19.349966,30.9304838 C22.8404293,30.9304838 26.333447,30.3456119 29.4356554,27.941994 C30.5518885,27.0877734 31.5212488,26.0488564 32.3513993,24.8868084 L32.3513993,18.0722823 Z" id="Fill-15" fill="#153358" mask="url(#mask-6)"></path>
                </g>
                <path d="M162.428735,72.1512247 C165.149669,72.1512247 167.353548,69.9480528 167.353548,67.225132 C167.353548,64.5034914 165.149669,62.3003195 162.428735,62.3003195 C159.706522,62.3003195 157.502643,64.5034914 157.502643,67.225132 C157.502643,69.9480528 159.706522,72.1512247 162.428735,72.1512247" id="Fill-18" fill="#153358"></path>
                <path d="M166.64514,95.2821931 C166.64514,94.4138626 166.712706,93.5711089 166.821066,92.7437012 L166.821066,84.0156371 C166.821066,81.7495375 164.949613,79.8722045 162.561853,79.8722045 C160.172818,79.8722045 158.301365,81.7495375 158.301365,84.0156371 L158.301365,106.612691 C158.301365,108.87879 160.172818,110.756124 162.561853,110.756124 C164.81958,110.756124 166.821066,108.87879 166.821066,106.612691 L166.821066,97.9229919 C166.71653,97.066171 166.64514,96.1901675 166.64514,95.2821931" id="Fill-20" fill="#153358"></path>
                <g id="Group-24" transform="translate(168.418511, 79.605964)">
                    <mask id="mask-8" fill="white">
                        <use xlink:href="#path-7"></use>
                    </mask>
                    <g id="Clip-23"></g>
                    <path d="M23.5690426,9.04116655 C21.3086954,9.04116655 19.9507002,7.3614261 16.7203565,7.3614261 C14.2647336,7.3614261 12.1971094,8.26639265 10.7752987,9.81721685 C9.4823954,11.2391248 8.70639816,13.1766977 8.70639816,15.5035722 C8.70639816,17.8304467 9.4823954,19.8982123 10.8391143,21.3839402 C12.1971094,22.8709445 14.1996418,23.7108147 16.7854484,23.7108147 C20.4676063,23.7108147 21.7605096,22.1599905 23.6992264,22.1599905 C25.6366668,22.1599905 27.1235695,23.7746346 27.1235695,25.7147604 C27.1235695,27.782526 25.4439439,29.0742412 22.664138,29.9792078 C20.790513,30.6250654 18.657797,30.8841743 16.5250809,30.8841743 C11.0982054,30.8841743 6.76895769,29.2031575 3.92533623,26.1666054 C1.40589783,23.5168021 0.0479026628,19.833116 0.0479026628,15.4397523 C0.0479026628,11.6258735 1.21062221,8.3953089 3.21443087,5.93951816 C6.3158672,2.12691579 11.162021,0.0591501951 16.7203565,0.0591501951 C18.1408909,0.0591501951 20.8556049,0.188066445 23.6341345,1.48105814 C25.7668506,2.44984461 26.994662,3.67773999 26.994662,5.55149301 C26.994662,7.49034235 25.4439439,9.04116655 23.5690426,9.04116655" id="Fill-22" fill="#153358" mask="url(#mask-8)"></path>
                </g>
                <path d="M246.300593,102.421504 L235.339445,102.421504 L247.866287,86.9609156 C248.714211,85.8561296 249.301829,84.8167839 249.301829,83.5169602 C249.301829,81.5691494 247.670414,80.1384452 245.647254,80.1384452 L226.401457,80.1384452 C225.99167,80.1384452 225.605079,80.226982 225.237817,80.3578626 C225.87827,81.3381837 226.235222,82.4750483 226.235222,83.5824005 C226.235222,84.9925745 225.714613,86.3321756 224.861535,87.3137799 C225.331888,87.539613 225.848631,87.674343 226.401457,87.674343 L237.296885,87.674343 L225.472349,102.270093 L225.837033,102.746139 C226.415632,103.537838 227.148866,104.73886 227.148866,106.449289 C227.148866,107.700353 226.733925,108.874429 226.039349,109.853467 C226.340891,109.915058 226.654029,109.957401 226.989075,109.957401 L246.300593,109.957401 C248.322465,109.957401 249.888159,108.268786 249.888159,106.190094 C249.888159,104.241 248.322465,102.421504 246.300593,102.421504" id="Fill-25" fill="#153358"></path>
                <g id="Group-29" transform="translate(197.704986, 65.228967)">
                    <mask id="mask-10" fill="white">
                        <use xlink:href="#path-9"></use>
                    </mask>
                    <g id="Clip-28"></g>
                    <path d="M18.2773086,27.707356 L26.7468271,38.7398976 C27.2679688,39.4538659 27.6591468,40.2319248 27.6591468,41.271473 C27.6591468,43.6069314 25.5745798,45.4245385 23.3587623,45.4245385 C21.9265876,45.4245385 20.8186788,44.7746606 19.9706976,43.6069314 L12.2848218,33.0294325 L8.70116806,36.1442316 L8.70116806,41.271473 C8.70116806,43.5428409 6.68093955,45.4245385 4.40207032,45.4245385 C1.9906638,45.4245385 0.101685806,43.5428409 0.101685806,41.271473 L0.101685806,4.27970836 C0.101685806,1.94296811 1.9906638,0.0612705343 4.40207032,0.0612705343 C6.81219007,0.0612705343 8.70116806,1.94296811 8.70116806,4.27970836 L8.70116806,26.3447916 L20.1019481,15.5070851 C20.8830173,14.7931168 21.7953371,14.4688188 22.7719953,14.4688188 C25.1834018,14.4688188 26.7468271,16.4799792 26.7468271,18.4270491 C26.7468271,19.4653155 26.3556491,20.5035818 25.6402051,21.1534597 L18.2773086,27.707356 Z" id="Fill-27" fill="#153358" mask="url(#mask-10)"></path>
                </g>
                <g id="Group-32" transform="translate(90.143750, 0.000000)">
                    <mask id="mask-12" fill="white">
                        <use xlink:href="#path-11"></use>
                    </mask>
                    <g id="Clip-31"></g>
                    <path d="M23.5053719,15.273575 C22.8838759,15.1506013 22.4772181,14.5459802 22.5999827,13.9221446 C22.7240261,13.2995899 23.3161097,12.8935202 23.9503937,13.016494 C25.077015,13.238103 26.4069652,14.0886715 27.6806483,15.221055 C29.3379709,14.1911497 31.1935072,13.0971955 33.2037782,11.9993985 C32.0272837,10.920816 30.8328861,10.1394202 29.863557,9.94855468 C29.2407822,9.82558091 28.8354032,9.21967891 28.9581678,8.59712421 C29.0809325,7.9745695 29.6730161,7.5672189 30.3073,7.69019267 C31.9403254,8.01171783 33.7383159,9.24017454 35.3611109,10.8554862 C36.9186872,10.0535948 38.5504338,9.26323212 40.242284,8.51001779 C39.5044174,7.8041996 38.7857327,7.31102355 38.2205039,7.19957857 C37.5977291,7.07788578 37.1910712,6.47198377 37.3138359,5.84942907 C37.4378793,5.22687437 38.0376357,4.82080474 38.6629681,4.94249753 C39.9213056,5.18972604 41.2781106,6.21450745 42.499363,7.54031839 C49.112029,4.81568083 56.4651192,2.78661365 63.6097652,2.85834835 C51.1261363,-1.62250833 36.8649777,-0.949995533 24.309736,5.90451107 C11.1764775,13.0677331 2.70571762,25.4637451 0.0573263483,39.1010236 C5.11113721,32.245236 14.9872964,23.4462067 25.6550318,16.5097176 C24.8532253,15.8564195 24.0897827,15.388863 23.5053719,15.273575" id="Fill-30" fill="#6DE792" mask="url(#mask-12)"></path>
                </g>
                <path d="M159.400108,7.82797219 C154.998685,6.83533699 146.881726,6.40536519 134.934278,11.1210203 C135.515429,12.1583114 135.947142,13.1688089 136.140007,14.0006831 C136.281783,14.6182094 135.897329,15.2331839 135.279137,15.3760826 C135.193561,15.3964966 135.10543,15.4054278 135.019854,15.4054278 C134.498734,15.4054278 134.02615,15.0469053 133.903533,14.5174148 C133.727272,13.755714 133.326213,12.8740805 132.808925,11.9937228 C131.268555,12.6559048 129.664322,13.4073986 128.005167,14.2456522 C129.057626,15.8175373 129.852078,17.446837 130.177779,18.8541334 C130.319554,19.4703838 129.936377,20.0853583 129.318186,20.2282569 C129.231332,20.248671 129.145756,20.2588781 129.058903,20.2588781 C128.537783,20.2588781 128.065198,19.9003556 127.941304,19.3695892 C127.655199,18.1319849 126.908005,16.6915156 125.946231,15.3161162 C124.188728,16.2577161 122.367361,17.3052142 120.483409,18.4598863 C121.434965,19.7600087 122.150228,21.0716141 122.390352,22.110181 C122.533404,22.7277073 122.147673,23.3426818 121.530759,23.4855804 C121.443905,23.5059945 121.357052,23.5149257 121.270199,23.5149257 C120.747801,23.5149257 120.276494,23.1564032 120.153877,22.6269127 C119.964844,21.8065214 119.346652,20.7398851 118.543258,19.6758006 C118.405315,19.7625605 118.27248,19.8442168 118.133259,19.9335285 C107.520543,26.7786286 94.5551223,38.048483 91.2304262,45.0619993 L91.2087129,45.1028275 C104.653104,51.4886105 120.861477,51.580474 134.934278,43.9226379 C148.996861,36.2686294 157.71413,22.6205333 159.632568,7.88155918 L159.400108,7.82797219 Z" id="Fill-33" fill="#6DE792"></path>
            </g>
        </g>
    </g>
</svg>